<?xml version="1.0" encoding="utf-8"?>
<!-- Generator: Adobe Illustrator 24.0.1, SVG Export Plug-In . SVG Version: 6.00 Build 0)  -->
<svg version="1.1" id="圖層_1" xmlns="http://www.w3.org/2000/svg" xmlns:xlink="http://www.w3.org/1999/xlink" x="0px" y="0px"
	 viewBox="0 0 476 200" style="enable-background:new 0 0 476 200;" xml:space="preserve">
<style type="text/css">
	.st0{fill:#EDF7F4;}
	.st1{enable-background:new    ;}
</style>
<g id="圖層_1_1_">
	<g>
		<path class="st0" d="M131.1,51.8C117.2,21.2,85.9-3.4,51.1,6.5c-5.9,1.7-11.6,4.3-16.7,7.7c-6.3,4.2-12,9.8-15.2,16.7
			c-3.5,7.8-3.5,16.6-3.4,25.2c0.2,24.9,0.3,49.8,0.4,74.7c0.1,13.4,0.2,26.7-0.4,40.1c-0.2,5.2-0.6,10.5-2.4,15.4
			c-1.1,3-2.4,7.1,0.4,8.7c0.9,0.5,1.9,0.5,2.9,0.5c14.6-0.5,28.5-9.9,34.4-23.3c4.5-10.2,4.6-21.7,4.5-32.8
			c-0.2-36.1-0.4-72.2-0.6-108.4c0-2.6,0-5.4,0.4-8.1c0,0,0,0,0-0.1c1.6-11.2,17-13.1,25.9-11.2c28.6,6,48.9,40,53.9,66.8
			c3.7,19.8-0.8,41-11.3,58c-4.6,7.5-10.6,14.3-18.3,18.5c-10.4,5.7-23,6-33.6,11.3c-11.6,5.7-19.4,16.6-28.3,26.1
			c-1,1.1-0.3,2.8,1.2,2.9c8.6,0.2,17.2,0.4,25.7,0.5c3.3,0,6.7,0.1,9.9-0.9c3.3-1,6.2-2.9,9-4.9c13.9-10,26.3-22.2,35.5-36.6
			C143.9,123.9,145.3,83.3,131.1,51.8z M88.8,13.6C88.8,13.6,88.8,13.6,88.8,13.6C88.8,13.6,88.8,13.6,88.8,13.6
			C88.8,13.6,88.8,13.6,88.8,13.6z"/>
	</g>
	<g>
		<path class="st0" d="M145.3,153.9c-0.8,6.9-1.4,13.9-1.4,20.9v0c-0.1,6.8-0.5,13.7-1.3,19.7c-0.1,0.6-0.5,1.2-1.2,1.2
			c0,0-42.8,0-43.2,0c-1.9,0-0.7-2,0.9-3.9c0,0,12-8,18.7-15.8c6.5-7.7,13.5-15.9,16.5-20c0.1-0.1,0.1-0.1,0.1-0.2
			c0.7-0.9,1.4-1.8,2.1-2.8c0.9-1.4,3.3-5.3,6.2-6.8c1.2-0.7,2-0.4,2.4,0.5C145.9,148.6,145.4,152.8,145.3,153.9z"/>
	</g>
	<g>
		<path class="st0" d="M461.8,113.4c0,0,0,0,0.1-0.1C461.9,113.3,461.8,113.4,461.8,113.4C461.8,113.4,461.8,113.4,461.8,113.4z"/>
	</g>
	<g class="st1">
		<path class="st0" d="M167.6,109.2c-2.1,0-3.5-1.2-4.1-3.7c0.7-3.8,1-7.2,0.8-10.1s-0.7-4.6-1.6-5.2c-1-0.7-2.3-1-4-1.2v-1.4h3.6
			c0.6,0,1.1-0.1,1.4-0.2c0.3-0.2,0.7-0.6,1.1-1.3c1.2-1.9,6.9-12.1,17-30.7l1.1,0.4c-0.4,0.9-0.9,2.4-1.7,4.6
			c-2.6,6.7-4.4,11.5-5.6,14.5c4.8-3.9,9.3-9,13.5-15.3s6.8-11.8,7.9-16.8l12.5,2.9c-0.2,0.9-1.3,1.4-3.2,1.6
			c2.3,4,5.8,7.6,10.5,10.9c4,2.8,8.5,5,13.5,6.9l-0.1,1c-1.8,0.5-3.2,1.6-4.4,3.2c-1.1,1.5-1.8,3.1-2.1,5c-4.3-2.9-8.1-6.6-11.2-11
			c-3.4-4.6-5.8-9.6-7.2-15c-2.5,5.5-6.4,10.8-12,15.8c-5.2,4.8-10.9,8.7-17.1,11.8l-0.5-0.8c-0.3,0.7-0.6,1.7-1.1,3
			c-1.2,3.1-1.8,5-2,5.7c-0.9,2.9-1.4,5.2-1.4,6.9c0.1,1,0.5,2.5,1.3,4.4c1.3,3,1.9,5.7,1.8,8.1c-0.1,1.9-0.8,3.3-2,4.4
			C171.1,108.7,169.5,109.2,167.6,109.2z M167.6,60.4c-0.3-2.4-1-4.8-2.3-7.4c-1.2-2.4-2.7-4.5-4.4-6.4l0.6-0.5
			c5.3,0.8,9.2,2.3,11.8,4.6c2.2,1.9,3.2,4,3.1,6.3c-0.1,2.1-1.1,3.6-2.9,4.4C171.6,62.3,169.6,62,167.6,60.4z M192.7,113.6V82.3
			h-12.7l-0.7-2.2h34.9l3.9-4.4l8.6,6.4c-0.5,0.7-1.5,1.2-3.1,1.6v14c0,3.3-0.6,5.7-1.9,7.1c-1.6,1.8-4.6,2.9-9.1,3.3
			c-0.3-3.2-0.8-5.3-1.7-6.5c-1.2-1.5-3.3-2.5-6.3-3v-1c3,0.2,5.9,0.3,8.8,0.5c1,0,1.4-0.5,1.4-1.4V82.3h-13v29.2
			c0,0.3-0.6,0.8-2,1.2c-1.6,0.5-3.5,0.8-5.6,0.8L192.7,113.6L192.7,113.6z M188.5,71.3l-0.6-2.1h17l4.4-6c1,0.8,1.9,1.6,2.9,2.4
			c2.2,1.8,3.9,3.3,5.1,4.5c-0.2,0.8-0.9,1.2-2.1,1.2H188.5z"/>
		<path class="st0" d="M244.3,71.1c-0.3-1.8-1.1-3.7-2.3-5.8c-1.2-1.9-2.5-3.5-3.9-4.8l0.6-0.5c4.6,0.4,8,1.4,10.3,3.1
			c2,1.4,2.9,3.1,2.8,5c0,1.7-0.8,2.9-2.3,3.7C247.9,72.5,246.1,72.3,244.3,71.1z M247.6,113.4c-2.2,0-3.5-1.3-4.1-3.9
			c0.7-3.9,1-7.3,0.8-10.4c-0.1-3-0.7-4.8-1.6-5.4c-1-0.8-2.3-1.2-4-1.2V91h3.5c0.6,0,1-0.1,1.3-0.2c0.3-0.2,0.6-0.6,1-1.4
			c0.9-1.5,2-3.7,3.3-6.6c1.4-2.9,5.7-12.5,13-28.7l1.2,0.3c-5.4,16.6-8.7,27.3-9.9,32.1c-0.9,3.4-1.3,5.8-1.2,7.4
			c0,1.1,0.4,2.6,1.2,4.6c1.3,3.2,1.8,6,1.7,8.6c-0.1,1.9-0.7,3.4-1.8,4.5C250.9,112.8,249.4,113.4,247.6,113.4z M251.3,55.2
			c-0.5-1.9-1.6-3.9-3.2-6.1c-1.4-1.9-2.8-3.6-4.4-5l0.6-0.5c4.7,0.1,8.4,1,10.9,2.7c2.1,1.4,3.2,3,3.3,5c0.1,1.8-0.6,3.2-2,4.1
			C255.1,56.3,253.3,56.3,251.3,55.2z M254.9,113.6l-0.7-1.1c7.7-2.6,13.4-5.7,17.1-9.3c3.2-3.2,5.3-7.3,6.3-12.3
			c0.6-3.1,0.9-8.4,0.9-16c0-1,0-1.7,0-2.2l11.1,0.9c-0.1,1.2-1,1.8-2.5,2c0.5,6.5,1.9,11.6,3.9,15.4c3.3-4.5,6-8.8,7.9-12.9
			l9.7,6.3c-0.5,0.8-1.5,1-2.9,0.8c-4.2,2.8-8.7,5.3-13.7,7.4c3.5,5.5,9.6,9.5,18.2,12l-0.1,0.9c-4,0.9-6.2,3.5-6.7,7.9
			c-5.2-2.4-9.2-6.1-11.9-11.2c-2.4-4.3-4-10.1-4.9-17.3c-0.4,5-1.4,9.1-2.9,12.1c-1.9,3.8-5,6.9-9.3,9.5
			C269.7,109.4,263.2,111.7,254.9,113.6z M258,78.1l-0.6-1c7-2.5,12.2-5.5,15.6-8.9c3-3,4.9-6.6,5.8-10.9c0.6-2.7,0.9-7,1-13.2
			c0-0.4,0-0.7,0-0.9l10.9,0.9c-0.1,1.1-1,1.8-2.4,2c-0.2,3.4-0.4,6-0.6,7.7c-0.4,2.7-1,5-1.7,6.9c2.1,0.3,3.8,0.5,5,0.8
			c1.4-2.1,2.9-4.5,4.4-7.5c1.4-2.7,2.5-5,3.2-7l9.3,5.8c-0.4,0.8-1.4,1.1-2.9,0.8c-4,3.3-8,6-12,8.3c4.9,1.2,8.7,2.9,11.3,5
			c2.2,1.8,3.4,3.7,3.6,5.7c0.1,1.8-0.5,3.2-1.9,4.1c-1.4,0.9-3,0.9-4.8,0c-1.3-2-3.3-4.2-6-6.6c-3.1-2.8-6.5-5.3-10.1-7.5
			c-1.8,3.4-4.6,6.3-8.6,8.7C271.9,74,265.8,76.3,258,78.1z M262.9,97.1c-1.7-0.3-2.7-1.1-3.2-2.3c-0.5-1.4-0.1-3,1.3-4.7
			c2.1-0.9,3.9-2.3,5.3-4.1c1.7-2.2,2.8-4.9,3.2-8l1,0.1c1.2,4.7,1.5,8.6,0.8,11.8c-0.5,2.7-1.7,4.7-3.5,6
			C266.3,96.9,264.7,97.4,262.9,97.1z M265.8,65.1c-1.5-0.3-2.4-1-2.8-2.2c-0.5-1.3-0.1-2.8,1.1-4.4c3.6-2.2,5.7-5.9,6.3-11.3l1,0.1
			c1.3,4.4,1.7,8.1,1.2,11.1c-0.4,2.5-1.3,4.4-2.8,5.6C268.7,64.9,267.3,65.3,265.8,65.1z"/>
		<path class="st0" d="M336.8,113.4V95c-5.3,5.9-11.4,10.6-18.1,14.1l-0.7-0.9c4-3.3,7.7-7.6,11.1-13c3.4-5.3,6-10.8,7.7-16.5V66.5
			h-6.2v18.7c0,0.3-0.6,0.8-1.7,1.4c-1.4,0.7-3,1-4.8,1h-1.4V60.9l8.9,3.5h5.2V57H320l-0.6-2.2h17.5V43.3l10.9,1
			c-0.3,1.2-1.2,1.9-2.8,2.2v8.2h5.1l4.7-6.2c2.8,2.4,5.6,4.8,8.4,7.2c-0.2,0.8-0.9,1.2-2.1,1.2H345v7.4h6l3.4-3.9l7.9,5.9
			c-0.6,0.8-1.6,1.3-3.1,1.5v10c0,2.7-0.5,4.5-1.4,5.6c-1.2,1.4-3.6,2.2-7.1,2.6c-0.1-2.4-0.4-4-0.8-4.8c-0.6-1.2-1.9-1.9-3.6-2.2
			v-1c1.5,0,2.9,0.1,4.3,0.2c0.8,0,1.1-0.4,1.1-1.2V66.5H345v19.7c5,1.3,8.9,3.1,11.5,5.5c2.2,2,3.4,4.1,3.5,6.3
			c0.1,2.1-0.6,3.5-2.1,4.3c-1.5,0.9-3.2,0.7-5.1-0.7c-0.9-4.3-3.5-8.8-7.8-13.6v22.5c0,0.5-0.7,1.1-2.1,1.8c-1.5,0.7-3,1-4.4,1
			L336.8,113.4L336.8,113.4z M364.2,97v-48l10.8,1c-0.1,1.2-1,1.9-2.7,2.1v42.5c0,0.4-0.7,0.9-2.1,1.4c-1.6,0.6-3,0.9-4.4,0.9
			L364.2,97L364.2,97z M375.5,113.2c-0.3-3-0.8-5-1.7-6.1c-1.2-1.4-3.3-2.4-6.4-2.9v-1c3.1,0.2,6.1,0.3,9.1,0.5
			c1.1,0,1.7-0.5,1.7-1.4V43.7l11.1,1c-0.1,1.2-1,1.9-2.7,2.2v56c0,3.4-0.6,5.7-1.9,7.1C383.2,111.7,380.1,112.8,375.5,113.2z"/>
		<path class="st0" d="M400.3,70.7l-0.7-2.1h30.3v-7.2h-22.5l-0.6-2.1h23.1v-6.7h-25.2l-0.6-2.2h25.8v-7.8l11.6,1
			c-0.1,1.2-1,1.9-2.7,2.2v4.6h13.9l4.6-5.8c1,0.8,2,1.6,3,2.3c2.3,1.8,4,3.3,5.3,4.4c-0.2,0.8-0.8,1.2-2,1.2h-24.8v6.7h12.1
			l4.4-5.5c1,0.8,1.9,1.5,2.9,2.2c2.2,1.7,3.9,3.1,5.1,4.2c-0.2,0.8-0.9,1.2-2,1.2h-22.4v7.2h17.6l4.7-5.9c1,0.8,2,1.6,3,2.3
			c2.3,1.8,4,3.3,5.3,4.4c-0.2,0.8-0.9,1.2-2,1.2L400.3,70.7L400.3,70.7z M445.7,113.6c-0.3-2.8-0.8-4.7-1.7-5.8
			c-1.3-1.4-3.4-2.3-6.4-2.8v-1c3,0.2,6,0.3,9,0.5c1,0,1.6-0.5,1.6-1.5v-9.9h-27v17.4c0,0.5-0.8,1.1-2.3,1.8c-1.7,0.8-3.3,1.1-5,1.1
			h-1.3V73.2l9.3,3.8h25.7l4-4.5l8.7,6.5c-0.5,0.7-1.6,1.3-3,1.6v23.3c0,3.1-0.6,5.3-2,6.6C453.6,112.2,450.4,113.2,445.7,113.6z
			 M421.2,91.1h9V79h-9V91.1z M438.5,91.1h9.7V79h-9.7V91.1z"/>
	</g>
	<g class="st1">
		<path class="st0" d="M187.4,175.8v-38.4h4.9v34.3H209v4.1H187.4z"/>
		<path class="st0" d="M262.7,175.8v-38.4h9.7c8,0,13.4,3,16.2,9c1.3,2.8,1.9,6.2,1.9,10c0,8-2.5,13.5-7.6,16.7
			c-2.8,1.7-6.3,2.6-10.3,2.6H262.7z M267.6,171.8h4.4c6.8,0,11-3,12.7-9c0.5-1.9,0.8-4,0.8-6.3c0-8.5-3.2-13.4-9.7-14.8
			c-1.2-0.2-2.4-0.4-3.8-0.4h-4.4L267.6,171.8L267.6,171.8z"/>
		<path class="st0" d="M345,175.8v-4h8.5v-28.6h-6.8v-3c3.1-0.6,5.8-1.5,8-2.8h3.6v34.4h7.7v4H345z"/>
		<path class="st0" d="M430,176.4c-4.7,0-8.8-1.7-12.2-5.1l2.4-3.1c3,2.7,6.1,4.1,9.4,4.2c2.8,0,5-1.1,6.6-3.4
			c1.1-1.6,1.6-3.4,1.6-5.6c0-3.8-1.4-6.4-4-7.8c-1.2-0.6-2.5-0.9-3.9-0.9c-1.9,0-3.9,0.7-5.9,1.9c-0.2,0.1-0.3,0.2-0.5,0.3
			l-2.6-1.5l1.2-18h18.7v4.1h-14.5l-1,11.1c1.8-1,3.8-1.5,5.7-1.5c4.5,0,7.7,1.6,9.7,4.8c1.2,2,1.8,4.5,1.8,7.4
			c0,4.6-1.6,8.2-5,10.7C435.4,175.6,432.9,176.4,430,176.4z"/>
	</g>
</g>
</svg>
