<?xml version="1.0" encoding="utf-8"?>
<!-- Generator: Adobe Illustrator 24.0.1, SVG Export Plug-In . SVG Version: 6.00 Build 0)  -->
<svg version="1.1" id="圖層_1" xmlns="http://www.w3.org/2000/svg" xmlns:xlink="http://www.w3.org/1999/xlink" x="0px" y="0px"
	 viewBox="0 0 595.28 841.89" style="enable-background:new 0 0 595.28 841.89;" xml:space="preserve">
<style type="text/css">
	.st0{display:none;}
	.st1{fill:#181818;}
	.st2{enable-background:new    ;}
</style>
<g id="圖層_2_1_" class="st0">
</g>
<g id="圖層_1_1_">
	<g>
		<path class="st1" d="M181.16,484.81c-13.84-30.58-45.17-55.18-79.94-45.25c-5.91,1.69-11.57,4.26-16.68,7.67
			c-6.34,4.23-12.04,9.76-15.16,16.71c-3.5,7.78-3.51,16.62-3.45,25.16c0.15,24.89,0.3,49.79,0.45,74.69
			c0.08,13.36,0.16,26.73-0.42,40.08c-0.23,5.21-0.57,10.5-2.4,15.38c-1.12,2.98-2.39,7.13,0.4,8.66c0.86,0.48,1.9,0.49,2.89,0.45
			c14.59-0.54,28.5-9.93,34.44-23.26c4.53-10.17,4.55-21.68,4.49-32.81c-0.18-36.11-0.37-72.23-0.56-108.35
			c-0.01-2.62,0.04-5.39,0.39-8.06c0,0,0.01-0.03,0.02-0.1c1.62-11.21,17-13.11,25.92-11.23c28.61,6.01,48.88,40.02,53.92,66.84
			c3.72,19.78-0.79,41-11.34,58.05c-4.61,7.47-10.56,14.34-18.27,18.55c-10.4,5.67-23.01,5.99-33.62,11.26
			c-11.57,5.74-19.44,16.58-28.27,26.1c-1,1.09-0.26,2.85,1.22,2.89c8.57,0.21,17.15,0.36,25.72,0.46c3.33,0.04,6.71,0.06,9.9-0.88
			c3.29-0.98,6.2-2.93,8.98-4.94c13.88-10,26.34-22.18,35.51-36.62C193.95,556.93,195.43,516.35,181.16,484.81z M138.91,446.62
			c0-0.01,0-0.01,0-0.01s0.01,0.01,0.03,0.02C138.93,446.62,138.92,446.62,138.91,446.62z"/>
	</g>
	<g>
		<path class="st1" d="M195.36,586.92c-0.76,6.92-1.35,13.93-1.35,20.9v0.04c-0.14,6.76-0.52,13.74-1.26,19.72
			c-0.08,0.64-0.52,1.16-1.17,1.17c0,0-42.78,0-43.24,0c-1.87,0-0.7-2,0.87-3.94c0,0,12.02-7.96,18.66-15.75
			c6.53-7.67,13.48-15.94,16.48-20.05c0.06-0.07,0.1-0.14,0.15-0.2c0.74-0.91,1.43-1.83,2.09-2.78c0.93-1.36,3.34-5.35,6.18-6.76
			c1.23-0.73,1.96-0.38,2.37,0.49C196.03,581.6,195.49,585.8,195.36,586.92z"/>
	</g>
	<g>
		<path class="st1" d="M511.89,546.42c0,0,0.03-0.03,0.1-0.09c-0.04,0.03-0.07,0.07-0.1,0.11
			C511.89,546.43,511.89,546.43,511.89,546.42z"/>
	</g>
	<g class="st2">
		<path d="M217.69,542.27c-2.11,0-3.49-1.23-4.14-3.69c0.7-3.82,0.98-7.17,0.83-10.06c-0.15-2.89-0.68-4.63-1.58-5.23
			c-1-0.65-2.33-1.05-3.99-1.21v-1.36h3.62c0.65,0,1.1-0.08,1.36-0.23c0.3-0.15,0.68-0.58,1.13-1.28
			c1.21-1.86,6.88-12.1,17.02-30.73l1.13,0.38c-0.35,0.9-0.93,2.44-1.73,4.59c-2.56,6.68-4.42,11.52-5.57,14.54
			c4.82-3.92,9.33-9,13.52-15.25c4.19-6.25,6.82-11.84,7.87-16.76l12.5,2.86c-0.2,0.85-1.28,1.38-3.24,1.58
			c2.26,3.97,5.77,7.58,10.54,10.85c4.02,2.76,8.51,5.05,13.48,6.85l-0.15,0.98c-1.76,0.55-3.21,1.61-4.37,3.16
			c-1.1,1.46-1.81,3.11-2.11,4.97c-4.32-2.91-8.06-6.58-11.22-11c-3.36-4.57-5.77-9.57-7.23-14.99
			c-2.46,5.47-6.45,10.75-11.98,15.82c-5.17,4.82-10.87,8.74-17.1,11.75l-0.53-0.83c-0.25,0.7-0.6,1.71-1.05,3.01
			c-1.16,3.06-1.83,4.97-2.03,5.72c-0.9,2.91-1.36,5.22-1.36,6.93c0.05,1.05,0.48,2.54,1.28,4.44c1.31,2.96,1.91,5.65,1.81,8.06
			c-0.1,1.86-0.75,3.34-1.96,4.44C221.23,541.71,219.64,542.27,217.69,542.27z M217.69,493.39c-0.25-2.36-1.03-4.82-2.33-7.38
			c-1.21-2.41-2.66-4.54-4.37-6.4l0.6-0.45c5.27,0.8,9.21,2.33,11.83,4.59c2.21,1.91,3.24,4.02,3.09,6.33
			c-0.15,2.11-1.11,3.57-2.86,4.37C221.73,495.34,219.74,494.99,217.69,493.39z M242.77,546.64v-31.26h-12.73l-0.68-2.18h34.87
			l3.92-4.37l8.59,6.4c-0.5,0.7-1.53,1.23-3.09,1.58v14.01c0,3.31-0.63,5.67-1.88,7.08c-1.56,1.81-4.59,2.91-9.11,3.31
			c-0.25-3.16-0.8-5.32-1.66-6.48c-1.21-1.51-3.29-2.51-6.25-3.01v-1.05c2.96,0.15,5.9,0.3,8.81,0.45c0.95,0,1.43-0.45,1.43-1.36
			v-14.39h-13.03v29.22c0,0.35-0.65,0.75-1.96,1.21c-1.61,0.55-3.46,0.83-5.57,0.83H242.77z M238.55,504.38l-0.6-2.11h17.02
			l4.44-6.03c0.95,0.8,1.93,1.61,2.94,2.41c2.16,1.81,3.87,3.31,5.12,4.52c-0.2,0.8-0.9,1.21-2.11,1.21H238.55z"/>
		<path d="M294.44,504.16c-0.3-1.81-1.08-3.74-2.33-5.8c-1.16-1.91-2.46-3.51-3.92-4.82l0.6-0.53c4.57,0.35,8.01,1.38,10.32,3.09
			c1.96,1.41,2.89,3.06,2.79,4.97c-0.05,1.71-0.83,2.94-2.33,3.69C297.95,505.56,296.24,505.36,294.44,504.16z M297.67,546.41
			c-2.16,0-3.52-1.31-4.07-3.92c0.7-3.87,0.98-7.32,0.83-10.36c-0.15-3.04-0.68-4.83-1.58-5.38c-1.01-0.75-2.33-1.15-3.99-1.21
			v-1.51h3.54c0.6,0,1.03-0.08,1.28-0.23c0.25-0.15,0.58-0.6,0.98-1.36c0.85-1.46,1.96-3.65,3.31-6.59
			c1.36-2.94,5.67-12.49,12.96-28.66l1.21,0.3c-5.37,16.57-8.66,27.27-9.87,32.09c-0.85,3.36-1.25,5.83-1.21,7.38
			c0,1.11,0.4,2.64,1.21,4.59c1.25,3.16,1.83,6.03,1.73,8.59c-0.1,1.86-0.71,3.36-1.84,4.52
			C301.03,545.83,299.53,546.41,297.67,546.41z M301.44,488.26c-0.55-1.86-1.61-3.89-3.16-6.1c-1.36-1.91-2.81-3.57-4.37-4.97
			l0.6-0.53c4.72,0.15,8.36,1.05,10.92,2.71c2.11,1.36,3.21,3.01,3.31,4.97c0.1,1.81-0.58,3.16-2.03,4.07
			C305.16,489.37,303.4,489.32,301.44,488.26z M304.98,546.64l-0.68-1.13c7.68-2.61,13.38-5.72,17.1-9.34
			c3.21-3.21,5.32-7.31,6.33-12.28c0.6-3.11,0.9-8.44,0.9-15.97c0-0.95,0-1.68,0-2.18l11.07,0.9c-0.15,1.16-0.98,1.83-2.49,2.03
			c0.55,6.48,1.86,11.63,3.92,15.44c3.31-4.47,5.95-8.76,7.91-12.88l9.72,6.33c-0.5,0.8-1.48,1.05-2.94,0.75
			c-4.17,2.81-8.74,5.27-13.71,7.38c3.51,5.52,9.59,9.52,18.23,11.98l-0.08,0.9c-3.97,0.9-6.2,3.54-6.7,7.91
			c-5.22-2.36-9.19-6.08-11.9-11.15c-2.36-4.32-3.99-10.07-4.9-17.25c-0.4,5.02-1.38,9.06-2.94,12.13
			c-1.91,3.77-5.02,6.93-9.34,9.49C319.82,542.47,313.32,544.78,304.98,546.64z M308.07,511.16l-0.6-1.05
			c6.98-2.51,12.18-5.47,15.59-8.89c2.96-2.96,4.9-6.58,5.8-10.85c0.6-2.66,0.93-7.05,0.98-13.18c0-0.4,0-0.7,0-0.9l10.85,0.9
			c-0.15,1.11-0.95,1.76-2.41,1.96c-0.2,3.42-0.4,5.98-0.6,7.68c-0.4,2.66-0.98,4.97-1.73,6.93c2.11,0.25,3.79,0.5,5.05,0.75
			c1.41-2.06,2.86-4.54,4.37-7.46c1.41-2.71,2.46-5.05,3.16-7l9.26,5.8c-0.4,0.8-1.36,1.08-2.86,0.83
			c-4.02,3.26-8.01,6.03-11.98,8.29c4.92,1.21,8.69,2.86,11.3,4.97c2.21,1.81,3.41,3.72,3.62,5.72c0.15,1.81-0.48,3.18-1.88,4.11
			c-1.41,0.93-3.01,0.94-4.82,0.04c-1.31-1.96-3.31-4.17-6.03-6.63c-3.11-2.81-6.48-5.32-10.09-7.53c-1.76,3.42-4.62,6.33-8.59,8.74
			C322.03,507.04,315.9,509.3,308.07,511.16z M313.04,530.14c-1.66-0.3-2.74-1.08-3.24-2.33c-0.55-1.41-0.13-2.96,1.28-4.67
			c2.11-0.9,3.87-2.28,5.27-4.14c1.71-2.21,2.76-4.87,3.16-7.98l1.05,0.08c1.21,4.67,1.46,8.61,0.75,11.82
			c-0.55,2.71-1.71,4.7-3.46,5.95C316.35,529.97,314.75,530.39,313.04,530.14z M315.94,498.13c-1.48-0.25-2.42-0.98-2.82-2.18
			c-0.5-1.3-0.13-2.79,1.13-4.44c3.56-2.16,5.67-5.92,6.33-11.3l1.05,0.08c1.25,4.37,1.66,8.06,1.21,11.07
			c-0.4,2.51-1.33,4.37-2.79,5.57C318.79,497.98,317.42,498.38,315.94,498.13z"/>
		<path d="M386.93,546.41v-18.38c-5.32,5.88-11.37,10.57-18.15,14.08l-0.68-0.9c4.02-3.26,7.73-7.61,11.15-13.03
			c3.41-5.32,5.97-10.82,7.68-16.49v-12.13h-6.18v18.68c0,0.35-0.58,0.8-1.73,1.36c-1.41,0.65-2.99,0.98-4.75,0.98h-1.43v-26.66
			l8.89,3.46h5.2V490h-16.87l-0.6-2.18h17.47v-11.45l10.92,1.05c-0.25,1.21-1.18,1.93-2.79,2.18v8.21h5.12l4.67-6.18
			c2.81,2.36,5.62,4.75,8.44,7.16c-0.2,0.8-0.9,1.21-2.11,1.21h-16.12v7.38h6.03l3.39-3.92l7.91,5.88c-0.6,0.8-1.63,1.31-3.09,1.51
			v10.02c0,2.66-0.45,4.54-1.36,5.65c-1.21,1.36-3.57,2.21-7.08,2.56c-0.1-2.41-0.38-3.99-0.83-4.75c-0.65-1.15-1.86-1.88-3.62-2.18
			v-0.98c1.46,0.05,2.89,0.13,4.29,0.23c0.75,0,1.13-0.4,1.13-1.21v-10.62h-6.78v19.73c5.02,1.26,8.86,3.09,11.52,5.5
			c2.21,2.01,3.39,4.12,3.54,6.33c0.1,2.06-0.6,3.49-2.11,4.29c-1.51,0.9-3.21,0.68-5.12-0.68c-0.9-4.27-3.52-8.81-7.83-13.63v22.45
			c0,0.5-0.7,1.1-2.11,1.81c-1.51,0.7-2.99,1.05-4.44,1.05H386.93z M414.27,530.07v-47.98l10.77,1.05
			c-0.15,1.16-1.05,1.86-2.71,2.11v42.48c0,0.4-0.7,0.88-2.11,1.43c-1.56,0.6-3.04,0.9-4.44,0.9H414.27z M425.64,546.26
			c-0.25-2.96-0.83-5-1.73-6.1c-1.21-1.41-3.34-2.38-6.4-2.94v-0.98c3.06,0.15,6.1,0.3,9.11,0.45c1.1,0,1.66-0.45,1.66-1.36v-58.6
			l11.07,1.05c-0.15,1.21-1.05,1.93-2.71,2.18v55.96c0,3.37-0.63,5.72-1.88,7.08C433.25,544.78,430.21,545.86,425.64,546.26z"/>
		<path d="M450.42,503.78l-0.68-2.11h30.28v-7.23H457.5l-0.6-2.11h23.12v-6.7h-25.23l-0.6-2.18h25.83v-7.76l11.6,0.98
			c-0.15,1.16-1.05,1.88-2.71,2.18v4.59h13.93l4.59-5.8c1,0.8,2.01,1.58,3.01,2.33c2.26,1.81,4.02,3.29,5.27,4.44
			c-0.15,0.8-0.83,1.21-2.03,1.21h-24.78v6.7h12.13l4.37-5.5c0.95,0.75,1.91,1.48,2.86,2.18c2.16,1.71,3.87,3.11,5.12,4.22
			c-0.2,0.8-0.88,1.21-2.03,1.21h-22.44v7.23h17.62l4.67-5.88c1,0.8,2.01,1.58,3.01,2.33c2.26,1.81,4.04,3.29,5.35,4.44
			c-0.2,0.8-0.88,1.21-2.03,1.21H450.42z M495.84,546.64c-0.25-2.76-0.83-4.7-1.73-5.8c-1.31-1.36-3.44-2.28-6.4-2.79v-0.98
			c3.01,0.15,6.03,0.33,9.04,0.53c1.05,0,1.58-0.5,1.58-1.51v-9.87h-27.04v17.4c0,0.5-0.78,1.1-2.33,1.81
			c-1.66,0.75-3.34,1.13-5.05,1.13h-1.28v-40.3l9.26,3.77h25.68l3.99-4.52l8.66,6.48c-0.55,0.75-1.56,1.28-3.01,1.58v23.35
			c0,3.06-0.65,5.27-1.96,6.63C503.65,545.21,500.51,546.23,495.84,546.64z M471.29,524.12h9.04v-12.05h-9.04V524.12z
			 M488.61,524.12h9.72v-12.05h-9.72V524.12z"/>
	</g>
	<g class="st2">
		<path d="M237.46,608.8v-38.39h4.91v34.25h16.71v4.14H237.46z"/>
		<path d="M312.78,608.8v-38.39h9.66c8.04,0,13.44,3.02,16.2,9.05c1.26,2.83,1.89,6.17,1.89,10.02c0,7.97-2.54,13.54-7.62,16.71
			c-2.83,1.74-6.25,2.61-10.27,2.61H312.78z M317.69,604.81h4.35c6.75,0,10.99-3,12.73-9c0.51-1.87,0.77-3.99,0.77-6.34
			c0-8.49-3.24-13.41-9.71-14.77c-1.16-0.24-2.42-0.36-3.78-0.36h-4.35V604.81z"/>
		<path d="M395.05,608.8v-3.99h8.54v-28.62h-6.8v-3.02c3.13-0.58,5.79-1.5,7.97-2.76h3.63v34.4h7.72v3.99H395.05z"/>
		<path d="M480.08,609.46c-4.74-0.03-8.79-1.72-12.17-5.06l2.35-3.12c3,2.69,6.13,4.09,9.41,4.19c2.83,0,5.03-1.14,6.59-3.42
			c1.06-1.57,1.58-3.44,1.58-5.62c0-3.82-1.35-6.42-4.04-7.82c-1.16-0.61-2.47-0.92-3.94-0.92c-1.94,0-3.92,0.65-5.93,1.94
			c-0.17,0.1-0.33,0.2-0.46,0.31l-2.56-1.53l1.23-17.99h18.66v4.09h-14.46l-0.97,11.09c1.84-0.99,3.75-1.48,5.72-1.48
			c4.46,0,7.7,1.6,9.71,4.8c1.23,2.01,1.84,4.46,1.84,7.36c0,4.63-1.65,8.2-4.96,10.68C485.48,608.63,482.95,609.46,480.08,609.46z"
			/>
	</g>
</g>
</svg>
